<?xml version="1.0" encoding="UTF-8" standalone="no"?>
<svg
   xmlns:dc="http://purl.org/dc/elements/1.1/"
   xmlns:cc="http://creativecommons.org/ns#"
   xmlns:rdf="http://www.w3.org/1999/02/22-rdf-syntax-ns#"
   xmlns:svg="http://www.w3.org/2000/svg"
   xmlns="http://www.w3.org/2000/svg"
   xmlns:sodipodi="http://sodipodi.sourceforge.net/DTD/sodipodi-0.dtd"
   xmlns:inkscape="http://www.inkscape.org/namespaces/inkscape"
   inkscape:version="1.0beta2 (2b71d25, 2019-12-03)"
   sodipodi:docname="logo.svg"
   version="1.1"
   viewBox="0 0 357.17 185.97"
   data-name="Layer 1"
   id="a5c9fc67-5ba0-43dd-8908-cf6b0b2f18bd">
  <metadata
     id="metadata67">
    <rdf:RDF>
      <cc:Work
         rdf:about="">
        <dc:format>image/svg+xml</dc:format>
        <dc:type
           rdf:resource="http://purl.org/dc/dcmitype/StillImage" />
      </cc:Work>
    </rdf:RDF>
  </metadata>
  <sodipodi:namedview
     inkscape:current-layer="a5c9fc67-5ba0-43dd-8908-cf6b0b2f18bd"
     inkscape:window-maximized="0"
     inkscape:window-y="23"
     inkscape:window-x="0"
     inkscape:cy="92.985001"
     inkscape:cx="178.58501"
     inkscape:zoom="3.61"
     showgrid="false"
     id="namedview65"
     inkscape:window-height="977"
     inkscape:window-width="1564"
     inkscape:pageshadow="2"
     inkscape:pageopacity="0"
     guidetolerance="10"
     gridtolerance="10"
     objecttolerance="10"
     borderopacity="1"
     inkscape:document-rotation="0"
     bordercolor="#666666"
     pagecolor="#ffffff" />
  <defs
     id="defs12">
    <style
       id="style10">.b42d65ff-821a-439b-9dd2-3fd1a3cd8aad,.bbf24dda-1d45-4330-bad8-bfeb95ba5970{fill:none;}.a141ccce-0364-4922-bd83-6ab243d8bd0e,.b42d65ff-821a-439b-9dd2-3fd1a3cd8aad,.bbf24dda-1d45-4330-bad8-bfeb95ba5970,.e537d674-091c-4c29-8c29-34ef7d429d33,.ea0f754a-8ea9-4698-954a-316d3d042aac{stroke:#000;stroke-miterlimit:10;}.b42d65ff-821a-439b-9dd2-3fd1a3cd8aad{stroke-width:6px;}.bbf24dda-1d45-4330-bad8-bfeb95ba5970{stroke-width:2px;}.a141ccce-0364-4922-bd83-6ab243d8bd0e,.e537d674-091c-4c29-8c29-34ef7d429d33{stroke-width:4px;}.a141ccce-0364-4922-bd83-6ab243d8bd0e,.ea0f754a-8ea9-4698-954a-316d3d042aac{fill:#fff;}.b4280176-8d27-4b38-afa1-eff6e3e6d99c{font-size:36px;font-family:Geogrotesque-Regular, Geogrotesque;}.becf2ccf-3718-4b37-8ae6-ff1f95959419{letter-spacing:-0.05em;}</style>
  </defs>
  <title
     id="title14">Artboard 1SVG</title>
  <rect
     id="rect16"
     rx="12"
     height="179.97"
     width="351.17"
     y="3"
     x="3"
     class="b42d65ff-821a-439b-9dd2-3fd1a3cd8aad" />
  <g
     data-name="Layer 1"
     id="add2d85a-85ab-44b3-9e67-e1a4b9286358">
    <line
       id="line18"
       y2="79.39"
       x2="163.83"
       y1="65.29"
       x1="139.33"
       class="bbf24dda-1d45-4330-bad8-bfeb95ba5970" />
    <line
       id="line20"
       y2="121.49"
       x2="139.33"
       y1="107.39"
       x1="114.83"
       class="bbf24dda-1d45-4330-bad8-bfeb95ba5970" />
  </g>
  <g
     data-name="Layer 2"
     id="a5d1d236-8151-451e-a91e-66f85f011d91">
    <path
       id="path23"
       d="M180.83,169a12,12,0,0,1-12,12h-152a12,12,0,0,1-12-12V17a12,12,0,0,1,12-12h152a12,12,0,0,1,12,12Z"
       class="e537d674-091c-4c29-8c29-34ef7d429d33" />
    <polygon
       id="polygon25"
       points="116.33 106.89 92.33 120.89 68.33 106.89 68.33 78.79 92.33 64.79 116.33 78.79 116.33 106.89"
       class="ea0f754a-8ea9-4698-954a-316d3d042aac" />
    <polygon
       id="polygon27"
       points="104.83 99.69 92.33 106.99 79.83 99.69 79.83 85.09 92.33 77.79 104.83 85.09 104.83 99.69" />
    <polygon
       id="polygon29"
       points="142.83 60.89 118.83 74.89 94.83 60.89 94.83 32.79 118.83 18.79 142.83 32.79 142.83 60.89"
       class="a141ccce-0364-4922-bd83-6ab243d8bd0e" />
    <polygon
       id="polygon31"
       points="131.83 53.69 119.33 60.99 106.83 53.69 106.83 39.09 119.33 31.79 131.83 39.09 131.83 53.69" />
    <polygon
       id="polygon33"
       points="88.83 60.89 64.83 74.89 40.83 60.89 40.83 32.79 64.83 18.79 88.83 32.79 88.83 60.89"
       class="a141ccce-0364-4922-bd83-6ab243d8bd0e" />
    <polygon
       id="polygon35"
       points="77.83 53.69 65.33 60.99 52.83 53.69 52.83 39.09 65.33 31.79 77.83 39.09 77.83 53.69" />
    <polygon
       id="polygon37"
       points="88.83 152.89 64.83 166.89 40.83 152.89 40.83 124.79 64.83 110.79 88.83 124.79 88.83 152.89"
       class="a141ccce-0364-4922-bd83-6ab243d8bd0e" />
    <polygon
       id="polygon39"
       points="77.83 145.69 65.33 152.99 52.83 145.69 52.83 131.09 65.33 123.79 77.83 131.09 77.83 145.69" />
    <polygon
       id="polygon41"
       points="142.83 152.89 118.83 166.89 94.83 152.89 94.83 124.79 118.83 110.79 142.83 124.79 142.83 152.89"
       class="a141ccce-0364-4922-bd83-6ab243d8bd0e" />
    <polygon
       id="polygon43"
       points="131.83 145.69 119.33 152.99 106.83 145.69 106.83 131.09 119.33 123.79 131.83 131.09 131.83 145.69" />
    <polygon
       id="polygon45"
       points="115.83 106.89 91.83 120.89 67.83 106.89 67.83 78.79 91.83 64.79 115.83 78.79 115.83 106.89"
       class="a141ccce-0364-4922-bd83-6ab243d8bd0e" />
    <polygon
       id="polygon47"
       points="61.83 106.89 37.83 120.89 13.83 106.89 13.83 78.79 37.83 64.79 61.83 78.79 61.83 106.89"
       class="a141ccce-0364-4922-bd83-6ab243d8bd0e" />
    <polygon
       id="polygon49"
       points="50.83 99.69 38.33 106.99 25.83 99.69 25.83 85.09 38.33 77.79 50.83 85.09 50.83 99.69" />
    <polygon
       id="polygon51"
       points="169.83 106.89 145.83 120.89 121.83 106.89 121.83 78.79 145.83 64.79 169.83 78.79 169.83 106.89"
       class="a141ccce-0364-4922-bd83-6ab243d8bd0e" />
  </g>
  <g
     class="b4280176-8d27-4b38-afa1-eff6e3e6d99c"
     style="font-size:36px;font-family:Geogrotesque-Regular, Geogrotesque"
     id="text62"
     transform="translate(189.97 45.36)"
     aria-label="COMPLEXPLAYLAB">
    <path
       id="path69"
       style="font-size:36px;font-family:Geogrotesque-Regular, Geogrotesque"
       d="M 2.8476563,-4.9746094 V -19.511719 q 0,-5.255859 7.5937497,-5.255859 7.59375,0 7.59375,5.255859 v 1.828125 q 0,0.580078 -0.509765,0.580078 h -1.441407 q -0.544921,0 -0.527343,-0.580078 v -1.423828 q 0,-3.46289 -5.080078,-3.46289 -5.0800786,0 -5.0800786,3.46289 v 13.7460939 q 0,3.4628906 5.0800786,3.4628906 5.080078,-0.017578 5.080078,-3.4628906 v -1.9160156 q 0,-0.5449219 0.527343,-0.5273438 h 1.441407 q 0.509765,0 0.509765,0.5273438 v 2.3027343 q 0,5.2558594 -7.59375,5.2558594 -7.5937497,0 -7.5937497,-5.2558594 z" />
    <path
       id="path71"
       style="font-size:36px;font-family:Geogrotesque-Regular, Geogrotesque"
       d="M 22.746094,-4.9746094 V -19.511719 q 0,-5.255859 7.769531,-5.255859 7.804687,0 7.822266,5.255859 v 14.5371096 q 0,5.2558594 -7.822266,5.2558594 -7.769531,0 -7.769531,-5.2558594 z m 2.548828,-0.3867187 q 0,3.4628906 5.220703,3.4453125 5.255859,0 5.255859,-3.4453125 V -19.107422 q 0,-3.46289 -5.255859,-3.46289 -5.220703,0 -5.220703,3.46289 z" />
    <path
       id="path73"
       style="font-size:36px;font-family:Geogrotesque-Regular, Geogrotesque"
       d="M 44.4375,-0.54492187 V -23.941406 q 0,-0.544922 0.544922,-0.544922 h 1.371094 q 0.351562,0 0.457031,0.298828 l 6.820312,15.9082031 0.632813,1.8632813 0.685547,-1.828125 6.662109,-15.9433594 q 0.105469,-0.28125 0.509766,-0.298828 H 63.5625 q 0.544922,0 0.544922,0.544922 V -0.54492187 Q 64.107422,0 63.5625,0 H 62.121094 Q 61.576172,0 61.576172,-0.54492187 V -19.107422 q -0.28125,1.265625 -0.720703,2.214844 l -5.220703,12.6035155 q -0.210938,0.5449219 -0.720704,0.5449219 h -1.318359 q -0.474609,0 -0.685547,-0.5449219 L 47.460937,-17.208984 q -0.246093,-0.580078 -0.597656,-1.863282 V -0.54492187 Q 46.863281,0 46.353516,0 H 44.982422 Q 44.4375,0 44.4375,-0.54492187 Z" />
    <path
       id="path75"
       style="font-size:36px;font-family:Geogrotesque-Regular, Geogrotesque"
       d="M 70.628906,-0.54492187 V -23.941406 q 0,-0.544922 0.47461,-0.544922 h 7.11914 q 7.804688,0 7.822266,5.255859 v 4.5 q 0,5.2910159 -7.822266,5.2910159 h -5.0625 v 8.89453123 Q 73.160156,0 72.650391,0 h -1.511719 q -0.509766,0 -0.509766,-0.54492187 z m 2.53125,-11.09179713 h 5.0625 q 5.25586,0 5.273438,-3.480469 v -3.708984 q 0,-3.46289 -5.273438,-3.46289 h -5.0625 z" />
    <path
       id="path77"
       style="font-size:36px;font-family:Geogrotesque-Regular, Geogrotesque"
       d="M 91.019531,-0.54492187 V -23.941406 q 0,-0.544922 0.509766,-0.544922 h 1.546875 q 0.509765,0 0.509765,0.544922 V -2.1972656 H 103.6582 q 0.50977,0 0.50977,0.5097656 v 1.14257813 Q 104.16797,0 103.6582,0 H 91.458984 q -0.439453,-0.0703125 -0.439453,-0.54492187 z" />
    <path
       id="path79"
       style="font-size:36px;font-family:Geogrotesque-Regular, Geogrotesque"
       d="M 108.66797,-0.54492187 V -23.941406 q 0,-0.544922 0.50976,-0.544922 h 12.26954 q 0.54492,0 0.54492,0.544922 v 1.125 q 0,0.544922 -0.54492,0.527344 h -10.24805 v 8.384765 h 9.61523 q 0.54493,0 0.52735,0.544922 v 1.054687 q 0,0.544922 -0.52735,0.527344 h -9.61523 v 9.5800784 h 10.6875 q 0.54492,0 0.54492,0.5097656 v 1.14257813 Q 122.43164,0 121.88672,0 h -12.74414 q -0.47461,0 -0.47461,-0.54492187 z" />
    <path
       id="path81"
       style="font-size:36px;font-family:Geogrotesque-Regular, Geogrotesque"
       d="m 125.75391,-0.61523437 6.9082,-11.88281263 -6.73242,-11.408203 q -0.35156,-0.580078 0.22851,-0.580078 h 1.79297 q 0.47461,0 0.79102,0.544922 l 5.53711,9.333984 5.29101,-9.333984 q 0.28125,-0.544922 0.75586,-0.544922 h 1.66992 q 0.61524,0 0.2461,0.544922 l -6.69727,11.513672 7.01367,11.88281213 q 0.10547,0.19335937 0.12305,0.31640624 Q 142.68164,0 142.27734,0 h -1.75781 q -0.50976,0 -0.79101,-0.54492187 l -5.73047,-9.65039113 -5.53711,9.65039113 Q 128.14453,0 127.70508,0 H 126 q -0.35156,0 -0.35156,-0.26367188 0,-0.140625 0.10547,-0.35156249 z" />
    <path
       id="path83"
       style=""
       d="M 3.2695313,59.455078 V 36.058594 q 0,-0.544922 0.4746093,-0.544922 h 7.1191404 q 7.804688,0 7.822266,5.255859 v 4.5 q 0,5.291016 -7.822266,5.291016 H 5.8007812 v 8.894531 Q 5.8007812,60 5.2910156,60 H 3.7792969 Q 3.2695313,60 3.2695313,59.455078 Z M 5.8007812,48.363281 h 5.0624998 q 5.25586,0 5.273438,-3.480469 v -3.708984 q 0,-3.462891 -5.273438,-3.462891 H 5.8007812 Z" />
    <path
       id="path85"
       style=""
       d="M 23.660156,59.455078 V 36.058594 q 0,-0.544922 0.509766,-0.544922 h 1.546875 q 0.509765,0 0.509765,0.544922 v 21.74414 h 10.072266 q 0.509766,0 0.509766,0.509766 v 1.142578 Q 36.808594,60 36.298828,60 H 24.099609 q -0.439453,-0.07031 -0.439453,-0.544922 z" />
    <path
       id="path87"
       style="letter-spacing:-0.05em"
       d="m 38.861328,59.455078 7.171875,-23.396484 q 0.175781,-0.544922 0.685547,-0.544922 h 1.546875 q 0.474609,0 0.650391,0.544922 l 7.189453,23.396484 q 0.03516,0.123047 0.03516,0.228516 Q 56.140625,60 55.683594,60 h -1.546875 q -0.509766,0 -0.650391,-0.544922 L 51.5,53.056641 h -8.244141 l -1.951172,6.398437 Q 41.199219,60 40.707031,60 h -1.441406 q -0.457031,0 -0.457031,-0.298828 0,-0.105469 0.05273,-0.246094 z M 43.871094,51 h 7.083984 l -2.619141,-8.419922 q -0.755859,-2.583984 -0.896484,-4.429687 -0.509766,2.882812 -0.914062,4.359375 z" />
    <path
       id="path89"
       style=""
       d="m 55.895859,36.058594 q -0.07031,-0.158203 -0.07031,-0.263672 0,-0.263672 0.421875,-0.28125 h 1.740235 q 0.404297,0 0.65039,0.544922 L 63.929062,46.5 q 0.316406,0.615234 0.527344,1.371094 0.07031,-0.175782 0.298828,-0.738282 0.246094,-0.5625 0.246094,-0.632812 l 5.466796,-10.441406 q 0.28125,-0.544922 0.650391,-0.544922 h 1.511719 q 0.457031,0 0.457031,0.263672 0,0.123047 -0.08789,0.28125 l -7.242187,13.974609 v 9.421875 Q 65.757187,60 65.212265,60 h -1.511719 q -0.544922,0 -0.527343,-0.544922 v -9.140625 z" />
    <path
       id="path91"
       style=""
       d="M 3.2695313,119.45508 V 96.058594 q 0,-0.544922 0.5097656,-0.544922 h 1.546875 q 0.5097656,0 0.5097656,0.544922 V 117.80273 H 15.908203 q 0.509766,0 0.509766,0.50977 v 1.14258 Q 16.417969,120 15.908203,120 H 3.7089844 q -0.4394531,-0.0703 -0.4394531,-0.54492 z" />
    <path
       id="path93"
       style=""
       d="m 18.509766,119.45508 7.171875,-23.396486 q 0.175781,-0.544922 0.685546,-0.544922 h 1.546875 q 0.47461,0 0.650391,0.544922 l 7.189453,23.396486 q 0.03516,0.12305 0.03516,0.22851 0,0.31641 -0.457031,0.31641 h -1.546875 q -0.509765,0 -0.65039,-0.54492 l -1.986329,-6.39844 h -8.24414 l -1.951172,6.39844 Q 20.847656,120 20.355469,120 h -1.441407 q -0.457031,0 -0.457031,-0.29883 0,-0.10547 0.05273,-0.24609 z M 23.519531,111 h 7.083985 l -2.619141,-8.41992 q -0.755859,-2.583986 -0.896484,-4.429689 -0.509766,2.882809 -0.914063,4.359379 z" />
    <path
       id="path95"
       style=""
       d="M 39.832031,119.45508 V 96.058594 q 0,-0.544922 0.509766,-0.544922 h 6.1875 q 7.769531,0 7.787109,5.044918 v 2.37305 q 0,3.16406 -3.251953,4.25391 4.253906,0.93164 4.253906,4.42968 v 3.19922 q 0,5.18555 -7.804687,5.18555 h -7.171875 q -0.509766,0 -0.509766,-0.54492 z m 2.53125,-1.58203 h 5.150391 q 5.255859,0 5.255859,-3.44532 v -2.67187 q 0,-3.33984 -5.255859,-3.33984 h -5.150391 z m 0,-11.47852 h 4.535156 q 4.904297,0 4.886719,-3.49805 v -1.93359 q 0,-1.652343 -1.248047,-2.478515 -1.230468,-0.84375 -4.007812,-0.84375 h -4.166016 z" />
  </g>
</svg>
