<svg id="a5c9fc67-5ba0-43dd-8908-cf6b0b2f18bd" data-name="Layer 1" xmlns="http://www.w3.org/2000/svg" viewBox="0 0 357.17 185.97"><defs><style>.b42d65ff-821a-439b-9dd2-3fd1a3cd8aad,.bbf24dda-1d45-4330-bad8-bfeb95ba5970{fill:none;}.a141ccce-0364-4922-bd83-6ab243d8bd0e,.b42d65ff-821a-439b-9dd2-3fd1a3cd8aad,.bbf24dda-1d45-4330-bad8-bfeb95ba5970,.e537d674-091c-4c29-8c29-34ef7d429d33,.ea0f754a-8ea9-4698-954a-316d3d042aac{stroke:#000;stroke-miterlimit:10;}.b42d65ff-821a-439b-9dd2-3fd1a3cd8aad{stroke-width:6px;}.bbf24dda-1d45-4330-bad8-bfeb95ba5970{stroke-width:2px;}.a141ccce-0364-4922-bd83-6ab243d8bd0e,.e537d674-091c-4c29-8c29-34ef7d429d33{stroke-width:4px;}.a141ccce-0364-4922-bd83-6ab243d8bd0e,.ea0f754a-8ea9-4698-954a-316d3d042aac{fill:#fff;}.b4280176-8d27-4b38-afa1-eff6e3e6d99c{font-size:36px;font-family:Geogrotesque-Regular, Geogrotesque;}.becf2ccf-3718-4b37-8ae6-ff1f95959419{letter-spacing:-0.05em;}</style></defs><title>Artboard 1SVG</title><rect class="b42d65ff-821a-439b-9dd2-3fd1a3cd8aad" x="3" y="3" width="351.17" height="179.97" rx="12"/><g id="add2d85a-85ab-44b3-9e67-e1a4b9286358" data-name="Layer 1"><line class="bbf24dda-1d45-4330-bad8-bfeb95ba5970" x1="139.33" y1="65.29" x2="163.83" y2="79.39"/><line class="bbf24dda-1d45-4330-bad8-bfeb95ba5970" x1="114.83" y1="107.39" x2="139.33" y2="121.49"/></g><g id="a5d1d236-8151-451e-a91e-66f85f011d91" data-name="Layer 2"><path class="e537d674-091c-4c29-8c29-34ef7d429d33" d="M180.83,169a12,12,0,0,1-12,12h-152a12,12,0,0,1-12-12V17a12,12,0,0,1,12-12h152a12,12,0,0,1,12,12Z"/><polygon class="ea0f754a-8ea9-4698-954a-316d3d042aac" points="116.33 106.89 92.33 120.89 68.33 106.89 68.33 78.79 92.33 64.79 116.33 78.79 116.33 106.89"/><polygon points="104.83 99.69 92.33 106.99 79.83 99.69 79.83 85.09 92.33 77.79 104.83 85.09 104.83 99.69"/><polygon class="a141ccce-0364-4922-bd83-6ab243d8bd0e" points="142.83 60.89 118.83 74.89 94.83 60.89 94.83 32.79 118.83 18.79 142.83 32.79 142.83 60.89"/><polygon points="131.83 53.69 119.33 60.99 106.83 53.69 106.83 39.09 119.33 31.79 131.83 39.09 131.83 53.69"/><polygon class="a141ccce-0364-4922-bd83-6ab243d8bd0e" points="88.83 60.89 64.83 74.89 40.83 60.89 40.83 32.79 64.83 18.79 88.83 32.79 88.83 60.89"/><polygon points="77.83 53.69 65.33 60.99 52.83 53.69 52.83 39.09 65.33 31.79 77.83 39.09 77.83 53.69"/><polygon class="a141ccce-0364-4922-bd83-6ab243d8bd0e" points="88.83 152.89 64.83 166.89 40.83 152.89 40.83 124.79 64.83 110.79 88.83 124.79 88.83 152.89"/><polygon points="77.83 145.69 65.33 152.99 52.83 145.69 52.83 131.09 65.33 123.79 77.83 131.09 77.83 145.69"/><polygon class="a141ccce-0364-4922-bd83-6ab243d8bd0e" points="142.83 152.89 118.83 166.89 94.83 152.89 94.83 124.79 118.83 110.79 142.83 124.79 142.83 152.89"/><polygon points="131.83 145.69 119.33 152.99 106.83 145.69 106.83 131.09 119.33 123.79 131.83 131.09 131.83 145.69"/><polygon class="a141ccce-0364-4922-bd83-6ab243d8bd0e" points="115.83 106.89 91.83 120.89 67.83 106.89 67.83 78.79 91.83 64.79 115.83 78.79 115.83 106.89"/><polygon class="a141ccce-0364-4922-bd83-6ab243d8bd0e" points="61.83 106.89 37.83 120.89 13.83 106.89 13.83 78.79 37.83 64.79 61.83 78.79 61.83 106.89"/><polygon points="50.83 99.69 38.33 106.99 25.83 99.69 25.83 85.09 38.33 77.79 50.83 85.09 50.83 99.69"/><polygon class="a141ccce-0364-4922-bd83-6ab243d8bd0e" points="169.83 106.89 145.83 120.89 121.83 106.89 121.83 78.79 145.83 64.79 169.83 78.79 169.83 106.89"/></g><text class="b4280176-8d27-4b38-afa1-eff6e3e6d99c" transform="translate(189.97 45.36)">COMPLEX<tspan x="0" y="60">PL</tspan><tspan class="becf2ccf-3718-4b37-8ae6-ff1f95959419" x="38" y="60">A</tspan><tspan x="55.14" y="60">Y</tspan><tspan x="0" y="120">LAB</tspan></text></svg>