<?xml version="1.0" encoding="utf-8"?>
<!-- Generator: Adobe Illustrator 17.1.0, SVG Export Plug-In . SVG Version: 6.00 Build 0)  -->
<!DOCTYPE svg PUBLIC "-//W3C//DTD SVG 1.1//EN" "http://www.w3.org/Graphics/SVG/1.1/DTD/svg11.dtd">
<svg version="1.1" id="Layer_1" xmlns="http://www.w3.org/2000/svg" xmlns:xlink="http://www.w3.org/1999/xlink" x="0px" y="0px"
	 viewBox="0 0 156 148.1" enable-background="new 0 0 156 148.1" xml:space="preserve">
<polygon fill="#FFFFFF" stroke="#010101" stroke-miterlimit="10" points="102.5,88.1 78.5,102.1 54.5,88.1 54.5,60 78.5,46 
	102.5,60 "/>
<polygon fill="#010101" points="91,80.9 78.5,88.2 66,80.9 66,66.3 78.5,59 91,66.3 "/>
<polygon points="129,42.1 105,56.1 81,42.1 81,14 105,0 129,14 "/>
<polygon fill="#FFFFFF" points="118,34.9 105.5,42.2 93,34.9 93,20.3 105.5,13 118,20.3 "/>
<g>
	<polygon points="75,42.1 51,56.1 27,42.1 27,14 51,0 75,14 	"/>
	<polygon fill="#FFFFFF" points="64,34.9 51.5,42.2 39,34.9 39,20.3 51.5,13 64,20.3 	"/>
</g>
<polygon points="75,134.1 51,148.1 27,134.1 27,106 51,92 75,106 "/>
<polygon fill="#FFFFFF" points="64,126.9 51.5,134.2 39,126.9 39,112.3 51.5,105 64,112.3 "/>
<polygon points="129,134.1 105,148.1 81,134.1 81,106 105,92 129,106 "/>
<polygon fill="#FFFFFF" points="118,126.9 105.5,134.2 93,126.9 93,112.3 105.5,105 118,112.3 "/>
<polygon points="102,88.1 78,102.1 54,88.1 54,60 78,46 102,60 "/>
<polygon points="48,88.1 24,102.1 0,88.1 0,60 24,46 48,60 "/>
<polygon fill="#FFFFFF" points="37,80.9 24.5,88.2 12,80.9 12,66.3 24.5,59 37,66.3 "/>
<polygon points="156,88.1 132,102.1 108,88.1 108,60 132,46 156,60 "/>
</svg>
