<svg xmlns="http://www.w3.org/2000/svg" viewBox="0 0 1499.64 1501.6"><title>Asset 1</title><g id="Layer_2" data-name="Layer 2"><g id="Layer_1-2" data-name="Layer 1"><path d="M0,731.6c30.33,1.36,59.26-2.91,84.08-22.15C95.53,700.58,105,690,110.18,676c3.76-10.14,7.94-20.12,12-30.13a129.49,129.49,0,0,0,9.69-43.07c1-21.67,1-42.94-9.21-62.93-12.34-24.2-31.91-40.59-55.85-52.33-5.66-2.77-11.55-5.08-18-7.88l14-33.62c4.35,1.71,8.32,3.28,12.31,4.82,20.34,7.85,41.23,12.26,63.07,8.7,17.91-2.92,34.41-9.27,47.23-22.84,13.15-13.92,28.1-26.65,38.84-42.26,26.66-38.71,35.34-76.35,11.27-120.75-8-14.79-18.91-27.35-31-38.38L230,209.22c7,6.24,13.49,12.63,20.57,18.36,21.47,17.39,45.66,27.32,73.78,25a72.64,72.64,0,0,0,18.9-4.06c11.38-4.2,22.3-9.65,33.64-14,22.68-8.66,41-23.55,57.18-40.93,26.44-28.35,31.43-62.18,22.39-98.72-2.58-10.44-6.71-20.49-10.3-31.23L479.33,50c1,2.24,1.79,4.14,2.59,6.07C490.75,77.45,502.26,97,521,111.32c15.73,12,33.24,19.64,53.52,18.91s40.3-1.24,60.37-2.79c6.78-.52,13.35-3.86,20-6,15.87-5.07,30.61-12.15,42.85-23.78,19-18,28.78-40.53,32.23-66,1.4-10.35,1.49-20.88,2.2-31.7h35.64c.38,7.78.55,15.54,1.17,23.26,2.61,32.41,14.62,60,41.71,79.53a40.18,40.18,0,0,0,7.77,4.43c10.26,4.35,20.61,8.48,30.92,12.73,12.37,5.1,25,8.9,38.55,9.36,18.44.63,36.88,3.2,55.12-2.11,27.56-8,47.58-25.49,62.06-49.62,5.71-9.51,10.13-19.78,15.47-30.36L1053,60.83c-3.63,11.12-7.63,21.54-10.42,32.28-6.81,26.15-4.88,51.55,8.61,75.43a55.24,55.24,0,0,0,9.49,12.73c15.52,14.86,30,31.28,47.4,43.58,37.34,26.42,75,33.41,117.16,11.14,15.35-8.11,28.34-19.23,39.71-31.73L1292,231.14c-1.27.77-3.26,1.5-4.63,2.86-16.88,16.78-31,35.4-36.81,59-4.61,18.68-4.77,37.23,3.37,55.25,4.52,10,9,20,13,30.26,8.23,20.92,21.57,38.25,37.8,53.34,27.9,25.93,61,31.75,97.16,23.12,11.09-2.65,21.79-7,33.14-10.69l13.57,33.14c-1.8.79-3.43,1.41-5,2.21-10.34,5.34-21.27,9.79-30.86,16.24-29.86,20.08-46.21,47.68-44.46,84.62.68,14.31,0,28.79,2,42.9,1.71,11.86,6,23.45,9.92,34.89,14.3,41.58,45.09,62.84,87.26,69.27,10.46,1.6,21.16,1.6,32.08,2.36v35.62c-7.69.34-15.14.47-22.55,1-26.14,2-49.87,10-69.07,28.72-7.69,7.5-14.19,15.82-18,26.07-3.62,9.65-7.63,19.16-11.52,28.72-5.25,12.87-8.7,26.05-9.3,40.11-.85,19.68-2.3,39.25,5.12,58.21,9.88,25.21,27.67,43.26,50.85,56.3,8.38,4.71,17.31,8.44,26.62,12.93l-13.89,33.23c-6.33-2.42-12.27-4.89-18.34-7-25.42-8.71-51-11.19-76.72-1.26-10.49,4.05-20.22,9.37-27.93,17.87-3.13,3.45-6.47,6.74-9.92,9.87-21.64,19.6-37.12,43.34-47.73,70.43-11,28.21-9.16,55.72,4.15,82.66,7.54,15.26,18,28.37,30.25,40.09,1.2,1.14,2.49,2.18,3.55,3.1l-27.1,27.48c-1.13-1.85-2-4.14-3.58-5.74-16.51-16.69-35-30.47-58.2-36.25-18.47-4.6-36.87-4.94-54.76,3.15-9.55,4.32-19.13,8.62-28.94,12.29-21.71,8.14-38.64,23-54,39.45-26.4,28.38-31.16,62.3-22,98.79,2.58,10.27,6.65,20.16,10.21,30.76l-33.24,13.64c-1.68-3.93-3.18-7.55-4.77-11.12-8.62-19.43-19.72-37.12-36.88-50.2-15.6-11.9-32.93-19.46-53-18.89-18,.51-36,.71-53.92,2-6.8.49-13.5,3.39-20.1,5.62-13.4,4.51-26.86,8.89-38.59,17.24-24.37,17.34-37.57,41.52-42.18,70.44-1.9,11.92-1.51,24.21-2.16,36.33H735c-.3-9,0-18-1-26.94-4.6-40.52-22.33-71.7-62.61-86.58-22.24-8.21-43.65-18.78-68.24-19.28-18.58-.38-36.94-1.11-54.6,6.14-27.16,11.15-45.37,31.43-58.39,57-3.23,6.35-5.85,13-9,20L448.12,1438a6.84,6.84,0,0,1,0-1.64c.55-1.39,1.16-2.76,1.74-4.14,9.52-22.77,15.29-46.18,11.12-71-2.51-15-7.43-29.36-17.8-40.63-11.6-12.61-24.32-24.2-36.87-35.9A97.89,97.89,0,0,0,389,1271.2c-8.61-5-17.81-9-27-13a92.23,92.23,0,0,0-54.77-6.12c-27.62,5.18-49.69,20.08-68.8,40a19.58,19.58,0,0,0-2.48,3.89l-27.5-26.78c1.93-1.61,4-3.07,5.72-4.82,10.32-10.27,19.63-21.39,26.38-34.36,13.77-26.44,16.86-53.31,4.81-81.63-12.17-28.61-24.57-56.65-47.86-78.6-18.23-17.17-39-27.54-64-29.2-22.44-1.5-43.64,3.57-64,12.61-1.61.71-3.24,1.36-5.12,2.15l-13.82-33.9c2.22-1,4.08-1.65,5.8-2.58,11.13-6,22.79-11.11,33.22-18.12,20.86-14,34.89-33.62,39.66-58.4,2.3-11.93,1.45-24.53,1.41-36.83-.07-23.92-2.88-47.18-12.2-69.77C107.13,808,88.41,788.65,60.82,777.62c-19.54-7.82-40-9.65-60.82-9Zm750.16,533.94c284.09-.14,514.74-230.89,514.71-515S1034.13,235.72,750.11,235.67c-284.22-.05-515.15,231-514.93,515.22S466.17,1265.68,750.16,1265.54ZM364.67,297.72c.19,8,3,14.33,8.71,20.68,9.95,11.05,22.58,18.59,35,26.35,1,.62,3.49,0,4.6-.94a550,550,0,0,1,88.16-59.31,6.15,6.15,0,0,0,2.64-4.87c-1.48-13.28-4.36-26.28-9.64-38.59a64.21,64.21,0,0,0-7.81-13.82c-7.15-9.29-18-12.41-28.79-8.13-30.12,11.94-57,28.87-78.61,53.34-5,5.66-8.57,12.6-12.45,19.16C365.19,293.76,365,296.59,364.67,297.72ZM1157.24,1087c7.35,14.05,16.19,26.52,27.33,37.18a45.34,45.34,0,0,0,12.56,8.82c9.77,4.32,19.19,3.89,27.61-4,22.47-21,38.21-46.38,49.39-74.75a109.81,109.81,0,0,0,5.38-19.15c2.79-14.25-1.75-23.11-14.76-29.82a41.85,41.85,0,0,0-8.7-3.69c-11.11-2.81-22.27-5.45-33.48-7.78-1.42-.3-3.85,1.22-4.86,2.6-2,2.79-3.4,6.08-5.09,9.14A535,535,0,0,1,1157.24,1087ZM664.55,1352.5c8.86-1.29,17.87-2,26.55-4,13.45-3.2,19.17-11,20.08-24.94,1-15-2.52-29.45-5.9-43.87-.3-1.28-2.57-2.85-4.05-3a547.3,547.3,0,0,1-94.14-17.39c-4.15-1.14-9-4.1-12.27-2.86-3.56,1.36-5.75,6.53-8.34,10.18-7.85,11.06-14.47,22.79-17.78,36-3.57,14.3,1.9,25.93,15.24,31.72C609.58,1345.48,636.44,1351.25,664.55,1352.5ZM833.82,149.22c-5,.88-14.87,2.27-24.56,4.38s-14.36,9.07-16.27,18.2c-.68,3.23-1.36,6.68-1,9.89,1.62,12.84,3.74,25.62,5.48,38.44.46,3.41,1.87,4.58,5.36,4.92a531.15,531.15,0,0,1,89.63,16.76c4.14,1.15,9,4.06,12.28,2.82,3.56-1.35,5.7-6.55,8.37-10.14,8.51-11.42,15.46-23.72,19.23-37.51,4-14.61-1.73-26.15-15.23-32.61C892.33,152.53,865.62,150.79,833.82,149.22Zm198,69.42c-8.66-.07-13.93,1.91-18.48,7.75-3.22,4.14-6.5,8.76-7.91,13.7-3.72,13.07-6.54,26.4-9.42,39.7-.28,1.3,1.1,3.78,2.39,4.47a552.59,552.59,0,0,1,84.3,56,5.68,5.68,0,0,0,5.07.48A137.45,137.45,0,0,0,1121,316.26a61.06,61.06,0,0,0,9.75-12.53c5.73-10.2,4.11-21.11-3.71-29.72a52.82,52.82,0,0,0-6.63-6.77c-15.19-11.6-29.91-24-45.95-34.27C1061.34,224.52,1046.37,219.32,1031.81,218.64ZM1154,409.16a11,11,0,0,0,.74,1.91,557.25,557.25,0,0,1,60.46,89.1c.55,1,2.64,1.8,3.92,1.68a129,129,0,0,0,39.94-10.17c5.09-2.25,10.29-5.11,14.23-8.94,7.46-7.25,10.65-16,6.68-26.67-7.76-20.79-19.36-39.45-32.43-57.09-9.32-12.58-20.55-23.56-34.59-31.27-9.44-5.18-18.24-4.19-26.61,2a47.58,47.58,0,0,0-9.54,8.73C1168.87,388.64,1161.35,399.19,1154,409.16ZM297.41,1135.4c7.63,0,15.59-2.7,21.18-9.28,9.12-10.74,17.28-22.32,25.61-33.71.66-.9.07-3.52-.83-4.61a545.78,545.78,0,0,1-59.53-88.63A5.18,5.18,0,0,0,279.7,997a131,131,0,0,0-38.09,9.6c-5.42,2.35-11,5.22-15.26,9.18-7.77,7.22-11.28,16.21-7,27,11.88,29.61,28.34,56.19,52.25,77.6,5.75,5.14,12.8,8.87,19.45,12.94C293.29,1134.63,296.08,1135,297.41,1135.4Zm529.86,218.29c25.67,0,56.19-6.47,79.39-17.42,6.86-3.24,13.28-7.57,19.54-11.92,9-6.23,10.63-15.31,8.24-25.31a48,48,0,0,0-4.65-12.59c-5.36-9.38-11.39-18.37-16.93-27.65-2.1-3.53-4.19-4.28-8.4-3.17-19,5-38,9.94-57.17,14-13.33,2.8-27,4-40.46,6.17-2.13.34-5.45,1.44-5.89,2.89-5,16.53-7.68,33.43-5.87,50.74,1.19,11.37,10.7,25.8,27.18,24.3C823.92,1353.56,825.6,1353.69,827.27,1353.69ZM676,147.52l-.22-1.46c-18.37,2.91-37,4.84-55,9-15.68,3.62-30.6,10-43.6,20.21-9.09,7.12-11.2,16.06-8.47,26.65a39.91,39.91,0,0,0,3.73,10.27q9.35,15.89,19.46,31.32c.73,1.12,3.74,1.67,5.32,1.2A557.55,557.55,0,0,1,688,226c4.72-.57,10.82.13,13.73-2.54s3.07-8.84,4-13.55c2.6-12.93,4.37-26,2.31-39.15-2.23-14.25-12.22-22.9-26.5-23.21C679.7,147.49,677.86,147.52,676,147.52Zm-493,561,.16.66c11.3-1.91,22.57-4,33.91-5.62,5.56-.78,7.48-3.25,8-8.87a484.17,484.17,0,0,1,17.6-91c3-10.35,3-10.28-5.58-16.65-11.72-8.69-24.21-16-38.37-19.76-14.67-3.94-26.46,1.66-32.51,15.39-12.43,28.23-17.41,57.9-15.92,88.62.31,6.41,2.08,12.77,3.5,19.08,2.3,10.25,9.62,15.13,19.3,17.09C176.32,708.09,179.69,708.16,183,708.51Zm.38,81.71-.22,1.38c-2.83,0-5.67-.19-8.48,0-16.8,1.34-26.41,11.69-26.83,28.41-.45,17.61,2.47,34.82,6,51.93,3.85,18.73,10.44,36.34,22.23,51.75,6.9,9,15.82,10.84,26.23,8.44a19,19,0,0,0,5.22-1.63c12.07-7,24.11-14,36-21.24,1-.63,1.48-3.56,1-5.07a536.86,536.86,0,0,1-20.16-102.6c-.27-2.7-.93-4.2-3.81-4.7C208.14,794.77,195.77,792.47,183.38,790.22Zm951.72,414.14c-.54-10.4-4.89-18-11.75-23.55-10.31-8.36-21.28-15.92-32.16-23.56-1-.71-3.8-.11-5,.85a535.83,535.83,0,0,1-84.37,56.83c-2.45,1.33-3.24,2.76-2.88,5.49,1.78,13.41,4.6,26.58,10,39a62.31,62.31,0,0,0,8.22,14.15,24,24,0,0,0,28.11,7.65c28.14-10.71,52.74-26.91,73.08-49.13,5.54-6.06,9.74-13.4,14.19-20.38C1134.06,1209.3,1134.49,1206.17,1135.09,1204.36Zm217-530.89c-.6-27.58-5.68-54.25-17.47-79.29-3.57-7.57-8.63-14.54-13.66-21.3s-12.71-8.35-20.67-6.72a54.13,54.13,0,0,0-15,5.07c-9.31,5.1-18.1,11.14-27.27,16.53-3.68,2.16-4.24,4.42-3,8.47a495.54,495.54,0,0,1,19.19,90.62c1.55,13.16,1.61,13.34,14.8,16.33s26.58,4.63,40.1,2.46c14.09-2.26,22.62-12.14,23-26.18C1352.13,677.46,1352.09,675.46,1352.09,673.47ZM471.43,1280.26c5.67.76,11.78-2,16.35-7.62,2.91-3.56,5.92-7.55,7.19-11.84,3.8-12.89,6.84-26,9.91-39.09.28-1.19-1-3.54-2.17-4.17a557.07,557.07,0,0,1-86.45-57.4,5.71,5.71,0,0,0-5.08-.35c-4.57,2.37-9.34,4.72-13.19,8.05-9,7.83-18.53,15.4-26,24.59-9.07,11.18-7.32,23.71,2.38,34.16,13.5,14.55,29.46,26.13,46.28,36.27C435.62,1271.89,451.67,1279.06,471.43,1280.26Zm879.81-443.87c-1.71-9.79-3.1-19.64-5.21-29.34s-9.31-14.59-18.64-16.44c-3.4-.68-7-1.34-10.4-.91-12.36,1.57-24.64,3.66-37,5.39-3.08.43-4,1.81-4.23,4.84a522.27,522.27,0,0,1-17.4,94.12c-2.82,10-2.8,10,5.65,16.16,12,8.83,24.81,16.27,39.42,19.82,13.52,3.29,24.84-2.36,30.66-14.77C1345.81,890.34,1349.58,863.81,1351.24,836.39ZM292.4,366.47c-6.89-.05-12.71,1.84-18,6.79-13.89,13-24.86,28.22-35.2,43.92a118.08,118.08,0,0,0-17.95,44.06c-2.79,15.43,2.16,24.58,16.43,31.33a39.6,39.6,0,0,0,7.4,2.95c11.45,2.78,23,5.33,34.43,8,2.91.69,4.08-.83,5.34-3.09,4.95-8.86,9.55-18,15.25-26.32,12.93-19,26.46-37.49,39.64-56.27,1-1.37,2-3.89,1.38-5-8-14.68-17.66-28.21-30.59-39.06C305.35,369.47,299.35,366.65,292.4,366.47Z"/><path d="M396.87,908.88v14.19H278.81c0-4.26-.2-8.68.17-13,.07-.88,2.21-2,3.55-2.29,6-1.2,12.21-1.78,18.17-3.23C315.11,901,321.81,893,323,878.19c.38-4.81.51-9.65.51-14.48q0-115.23.11-230.46c0-4.15-1-7.38-3.83-10.31-7.84-8.16-15.23-16.8-23.55-24.43-4.07-3.74-9.8-5.67-15.78-9v-13c2-.11,3.92-.3,5.84-.3,32.66,0,65.32.06,98-.11,4.11,0,6.64,1.34,9.18,4.47q83.08,102.51,166.35,204.87a20.19,20.19,0,0,0,5.71,5.27v-5.28c0-47.49.06-95-.06-142.47A156.92,156.92,0,0,0,564,621.61c-1.78-12.65-8.83-21.55-21.13-25.33-7.88-2.42-16.11-3.71-24.49-5.57V576.24H524c33.49,0,67,.1,100.48-.11,4.83,0,6.66,1.27,6.07,6.12a75.47,75.47,0,0,0-.06,8.83c-5.52,1.16-10.89,2.1-16.15,3.43-16.92,4.29-23.15,11.86-23.36,29.33-.28,23.33-.15,46.66-.16,70q0,115.73,0,231.46c0,2.15,0,4.3,0,7.25-5.33,0-10.44.3-15.47-.18-1.53-.15-3-2.33-4.25-3.82Q461.95,795.67,352.87,662.77c-1-1.23-2.11-2.38-3.75-4.22-.18,1.92-.36,3-.36,4.07q0,101,.18,202a84.92,84.92,0,0,0,1.87,15.82c2.23,11.48,9.16,19.19,20.3,22.48C379.35,905.32,387.87,906.83,396.87,908.88Z"/><path d="M930.06,591v-14.3H1221v104.7c-4.15,0-8.27.22-12.33-.16-1-.09-2.25-2-2.62-3.34-2.35-8.32-4.28-16.76-6.71-25.05-8.29-28.32-27-45.56-55.8-51.86a211.43,211.43,0,0,0-68.05-3.51c-10.84,1.16-15.06,6.26-15.4,17.3-.29,9.32-.13,18.66-.14,28q0,43.5,0,87c0,1.79,0,3.58,0,5.29,28.79,4.72,56.26-10.57,66-37.28,3.69-10.09,5.5-20.86,8.12-31.34.52-2.07.86-4.19,1.32-6.46h14.86V834.32h-14.5c-2.22-10.73-3.85-21.44-6.69-31.81-7.89-28.83-26.55-43.79-56.36-46l-12.54-.89c-.1,2.08-.25,3.83-.25,5.59q0,55.49,0,111c0,1.83,0,3.67.09,5.5.72,15.72,7.37,24.05,22.76,27.14,8,1.59,16.17,1.93,24.28,2.74,2.78.28,5.58.3,8.62.45v15.06H929.85c0-4.29-.24-8.59.18-12.81.1-1,2.35-2.3,3.78-2.56,6.71-1.22,13.56-1.71,20.2-3.22,13.09-3,19.12-10.38,20.08-23.85.28-4,.42-8,.42-12q0-119.24,0-238.48a94.29,94.29,0,0,0-1.29-15.89c-1.84-10.63-8.48-17.29-18.84-19.61C946.58,593,938.58,592.27,930.06,591Z"/><path d="M656.35,933.27V805h16.43c3.41,11.25,6.28,22.53,10.23,33.42,8.13,22.43,19.91,42.66,39.35,57.25,24,18,50.92,22.55,79.5,14.16,22.45-6.59,33.77-23.39,36.73-45.86,2.67-20.32-4.62-37-21.85-48.14-11.12-7.22-23.15-13.08-34.93-19.26-21.94-11.51-44.31-22.25-65.89-34.4-14.27-8-26.27-19.27-36.58-32.19-16.42-20.59-20.61-44.41-18.06-69.73,2.72-27,13.19-50.47,34.73-68,17.11-13.91,37.3-20,58.85-22.61,28.31-3.42,55.37,1.57,81.81,11.42a84.78,84.78,0,0,0,13.42,3.8c10,1.93,15.25-1.09,18-11,1.33-4.81,3.5-6.45,8.27-5.94,3.58.39,7.25.08,11.15.08V681.13H871.2c-1.67-5-3.21-10.26-5.13-15.37-9-24-21.82-45.41-42.54-61.08-21.43-16.2-45.42-22-71.59-14.24-17,5.08-28.78,16.19-31.92,34.27-3.4,19.54.33,37.19,17.93,49a349.82,349.82,0,0,0,34,19.84c22.92,11.82,46.14,23.07,69.26,34.51,41.86,20.72,64.56,60.08,60.55,107.27-3,35.75-25.93,74.59-75,90.12-36.53,11.56-73.2,10.12-109.6-1.39-8.4-2.66-16.75-5.57-25.3-7.58-8.8-2.07-14,.79-16.26,9.57-1.64,6.4-4.77,8.17-10.73,7.33C662.18,932.95,659.35,933.27,656.35,933.27Z"/></g></g></svg>