<svg id="Layer_1" data-name="Layer 1" xmlns="http://www.w3.org/2000/svg" viewBox="0 0 640 320"><defs><style>.cls-1{fill:#231f20;}.cls-2{fill:#00a7ce;}</style></defs><title>Our Stations__</title><path class="cls-1" d="M465,212.46h-3.57V195.61H455v-3.28h16.34v3.28H465v16.86Z"/><path class="cls-1" d="M489.42,192.27h3l4.95,15,4.8-14.93h3.71l-7,20.28h-3l-4.95-14.47-4.95,14.47h-3.05l-7-20.28h3.83l4.8,14.93Z"/><path class="cls-1" d="M515.52,192.33v20.13H512V192.33h3.54Z"/><path class="cls-1" d="M537.26,192.33h3.48v20.13h-3l-11.1-14.32v14.32h-3.48V192.33h3.28l10.78,13.92V192.33Z"/><path class="cls-1" d="M465.81,255.62a10.41,10.41,0,0,1,.14-20.82,10.49,10.49,0,0,1,7.88,3.14l-2.27,2.62a8,8,0,0,0-5.64-2.5c-3.85,0-6.64,3.16-6.64,7.13s2.79,7.19,6.64,7.19c2.47,0,4.05-1,5.78-2.62l2.27,2.3A10.39,10.39,0,0,1,465.81,255.62Z"/><path class="cls-1" d="M483.72,235.14v20.13h-3.54V235.14h3.54Z"/><path class="cls-1" d="M499.91,255.27h-3.57V238.42H490v-3.28h16.34v3.28h-6.39v16.86Z"/><path class="cls-1" d="M516.06,235.14v20.13h-3.54V235.14h3.54Z"/><path class="cls-1" d="M538.67,238.3H527.28v5.23h10.09v3.16H527.28v5.41h11.53v3.16H523.74V235.14h14.93v3.16Z"/><path class="cls-1" d="M553.07,243.6c4.26,1,6.47,2.56,6.47,5.92,0,3.8-3,6-7.19,6a12.4,12.4,0,0,1-8.4-3.22l2.13-2.53a9.28,9.28,0,0,0,6.36,2.62c2.19,0,3.57-1,3.57-2.56s-0.8-2.24-4.54-3.11c-4.28-1-6.7-2.3-6.7-6,0-3.51,2.87-5.87,6.87-5.87a11.15,11.15,0,0,1,7.31,2.53l-1.9,2.67a9.14,9.14,0,0,0-5.47-2.07c-2.07,0-3.28,1.07-3.28,2.42C548.29,242,549.21,242.67,553.07,243.6Z"/><path class="cls-1" d="M455.66,277.95h8.63c5.09,0,8.37,2.62,8.37,7.08v0.06c0,4.75-3.65,7.25-8.66,7.25h-2.76v5.75h-5.58V277.95Zm8.23,10c2,0,3.19-1,3.19-2.62v-0.06c0-1.73-1.21-2.65-3.22-2.65h-2.62V288h2.65Z"/><path class="cls-1" d="M478.46,277.95h10.33c2.53,0,4.32.63,5.5,1.81a4.41,4.41,0,0,1,1.29,3.25v0.06a4.66,4.66,0,0,1-3.11,4.49c2.45,0.8,4,2.18,4,4.92v0.06c0,3.45-2.82,5.55-7.62,5.55H478.46V277.95Zm8.95,8c1.7,0,2.65-.58,2.65-1.76v-0.06c0-1.09-.86-1.73-2.53-1.73h-3.62V286h3.51Zm0.81,7.62c1.7,0,2.67-.66,2.67-1.84V291.7c0-1.09-.86-1.81-2.73-1.81h-4.26v3.71h4.32Z"/><path class="cls-1" d="M500.94,295.09l3.11-3.71a10.38,10.38,0,0,0,6.53,2.42c1.5,0,2.3-.52,2.3-1.38v-0.06c0-.83-0.66-1.29-3.39-1.93-4.29-1-7.59-2.18-7.59-6.33V284c0-3.74,3-6.44,7.79-6.44a12.67,12.67,0,0,1,8.28,2.67l-2.79,3.94a10.1,10.1,0,0,0-5.64-2c-1.35,0-2,.58-2,1.29v0.06c0,0.92.69,1.32,3.48,2,4.63,1,7.51,2.5,7.51,6.27v0.06c0,4.11-3.25,6.56-8.14,6.56A14.06,14.06,0,0,1,500.94,295.09Z"/><path class="cls-2" d="M320.53,197.09s-29-15.87-38.74-21.14a0.86,0.86,0,0,0-1.27.76V193.6a1.61,1.61,0,0,0,.85,1.42c9.76,5.3,38.26,20.88,38.26,20.88a2.55,2.55,0,0,0,1.88.21l77.65-21.05a1,1,0,0,0,.75-1V176.75a0.91,0.91,0,0,0-1.14-.87Z"/><path class="cls-1" d="M311.39,297a0.73,0.73,0,0,1-.64.73,35.25,35.25,0,0,1-4.78.33,33,33,0,0,1-9.91-1.45,21.83,21.83,0,0,1-8.15-4.56,20.93,20.93,0,0,1-5.45-8,31,31,0,0,1-2-11.62V209.3a0.71,0.71,0,0,1,1.05-.63L295,216a1.35,1.35,0,0,1,.7,1.18v11.24h12.71a0.73,0.73,0,0,1,.73.73v13a0.73,0.73,0,0,1-.73.73H295.75v29.22a14.25,14.25,0,0,0,1.31,6.73,8.57,8.57,0,0,0,3.53,3.61,13.41,13.41,0,0,0,5,1.46c1.67,0.16,3.23.26,5,.27a0.73,0.73,0,0,1,.72.72V297Z"/><path class="cls-1" d="M320.72,232a2.79,2.79,0,0,1,2.13-2.7c8.18-2.25,16.26-4.4,22.78-6.16,5.87-1.59,11.46-2,16.13-.25,9.18,3.52,12.25,12,12.25,20.48l0.14,31.27c0,20-14,24.19-24.66,24.19a49.31,49.31,0,0,1-13.42-2.49v20.92a0.73,0.73,0,0,1-.73.73H321.58a0.73,0.73,0,0,1-.73-0.72Zm15.35,51.3A30.19,30.19,0,0,0,347,285c6.77,0,11.91-3.51,11.91-10.8l0-26.46c0-8.57-4.24-11.23-9.89-10.66-2.89.29-9.33,2.39-13,3.7Z"/><path class="cls-1" d="M415.58,297a0.77,0.77,0,0,1-.67.76,35.2,35.2,0,0,1-4.74.32,33,33,0,0,1-9.91-1.45,21.81,21.81,0,0,1-8.15-4.56,20.91,20.91,0,0,1-5.45-8,31,31,0,0,1-2-11.62V213.59a1.39,1.39,0,0,1,1-1.34L399,208.65a0.72,0.72,0,0,1,.91.69v19.11h12.67a0.76,0.76,0,0,1,.76.76v12.92a0.76,0.76,0,0,1-.76.76H399.93v29.22a14.25,14.25,0,0,0,1.32,6.73,8.56,8.56,0,0,0,3.53,3.61,13.42,13.42,0,0,0,5.05,1.46c1.66,0.16,3.21.25,5,.27a0.77,0.77,0,0,1,.76.76v12Z"/><path class="cls-1" d="M98.14,246.77a71.15,71.15,0,1,1,71.15,71.15A71.16,71.16,0,0,1,98.14,246.77Zm111.94,0.52h7.69l-17.27-39.42H189.19l17.34,39.42h-7.9v10.45c0,6.34-2.63,9-11.24,8.94v20.18H198.6V266.67h3.7a7.78,7.78,0,0,0,7.78-7.76V247.28Zm-54.35-39.42c-17.33,0-31.59,12.1-31.59,30.06,0,15.1,9.09,25.88,22.65,27.94v21H175V266.67h3.92c4.57-.45,7.68-3.47,7.73-7.72V247.28h7.69l-17.5-39.42H155.74Zm15.59,34.19a7.28,7.28,0,1,0-7.28-7.28A7.28,7.28,0,0,0,171.33,242.05Z"/></svg>