<svg id="Layer_1" data-name="Layer 1" xmlns="http://www.w3.org/2000/svg" viewBox="0 0 317.45 142.37"><defs><style>.cls-1{fill:#00a7ce;}.cls-2{fill:#231f20;}</style></defs><title>pbs-twincities-2</title><path class="cls-1" d="M320.53,197.09s-29-15.87-38.74-21.14a0.86,0.86,0,0,0-1.27.76V193.6a1.61,1.61,0,0,0,.85,1.42c9.76,5.3,38.26,20.88,38.26,20.88a2.55,2.55,0,0,0,1.88.21l77.65-21.05a1,1,0,0,0,.75-1V176.75a0.91,0.91,0,0,0-.92-0.9l-0.22,0Z" transform="translate(-98.14 -175.62)"/><path class="cls-2" d="M311.39,297a0.73,0.73,0,0,1-.64.73,35.25,35.25,0,0,1-4.78.33,33,33,0,0,1-9.91-1.45,21.83,21.83,0,0,1-8.15-4.56,20.93,20.93,0,0,1-5.45-8,31,31,0,0,1-2-11.62V209.3a0.71,0.71,0,0,1,1-.63L295,216a1.35,1.35,0,0,1,.7,1.18v11.24h12.71a0.73,0.73,0,0,1,.73.73h0v13a0.73,0.73,0,0,1-.73.73H295.75V272.1a14.25,14.25,0,0,0,1.31,6.73,8.57,8.57,0,0,0,3.53,3.61,13.41,13.41,0,0,0,5,1.46c1.67,0.16,3.23.26,5,.27a0.73,0.73,0,0,1,.72.72V297h0.08Z" transform="translate(-98.14 -175.62)"/><path class="cls-2" d="M320.72,232a2.79,2.79,0,0,1,2.13-2.7c8.18-2.25,16.26-4.4,22.78-6.16,5.87-1.59,11.46-2,16.13-.25,9.18,3.52,12.25,12,12.25,20.48l0.14,31.27c0,20-14,24.19-24.66,24.19a49.31,49.31,0,0,1-13.42-2.49v20.92a0.73,0.73,0,0,1-.73.73H321.58a0.73,0.73,0,0,1-.73-0.72Zm15.35,51.3A30.19,30.19,0,0,0,347,285c6.77,0,11.91-3.51,11.91-10.8V247.74c0-8.57-4.24-11.23-9.89-10.66-2.89.29-9.33,2.39-13,3.7Z" transform="translate(-98.14 -175.62)"/><path class="cls-2" d="M415.58,297a0.77,0.77,0,0,1-.67.76,35.2,35.2,0,0,1-4.74.32,33,33,0,0,1-9.91-1.45,21.81,21.81,0,0,1-8.15-4.56,20.91,20.91,0,0,1-5.45-8,31,31,0,0,1-2-11.62V213.59a1.39,1.39,0,0,1,1-1.34l13.34-3.6a0.72,0.72,0,0,1,.91.69v19.11h12.67a0.76,0.76,0,0,1,.76.76h0v12.92a0.76,0.76,0,0,1-.76.76H399.93v29.22a14.25,14.25,0,0,0,1.32,6.73,8.56,8.56,0,0,0,3.53,3.61,13.42,13.42,0,0,0,5,1.46c1.66,0.16,3.21.25,5,.27a0.77,0.77,0,0,1,.76.76V297Z" transform="translate(-98.14 -175.62)"/><path class="cls-2" d="M98.14,246.77a71.15,71.15,0,1,1,71.15,71.15A71.15,71.15,0,0,1,98.14,246.77Zm111.94,0.52h7.69L200.5,207.87H189.19l17.34,39.42h-7.9v10.45c0,6.34-2.63,9-11.24,8.94v20.18H198.6V266.67h3.7a7.78,7.78,0,0,0,7.78-7.76V247.28h0Zm-54.35-39.42c-17.33,0-31.59,12.1-31.59,30.06,0,15.1,9.09,25.88,22.65,27.94v21H175v-20.2h3.92c4.57-.45,7.68-3.47,7.73-7.72V247.28h7.69l-17.5-39.42H155.73Zm15.59,34.19a7.28,7.28,0,1,0-7.28-7.28h0a7.28,7.28,0,0,0,7.29,7.27h0Z" transform="translate(-98.14 -175.62)"/></svg>